<mxfile host="app.diagrams.net" modified="2021-12-13T12:11:53.661Z" agent="5.0 (Windows NT 10.0; Win64; x64) AppleWebKit/537.36 (KHTML, like Gecko) Chrome/96.0.4664.93 Safari/537.36 Edg/96.0.1054.53" etag="hWQPD0bvWnl3pvJTjkSp" version="15.9.4" type="github">
  <diagram id="C5RBs43oDa-KdzZeNtuy" name="数据源配置">
    <mxGraphModel dx="813" dy="1604" grid="1" gridSize="10" guides="1" tooltips="1" connect="1" arrows="1" fold="1" page="1" pageScale="1" pageWidth="827" pageHeight="1169" background="none" math="0" shadow="1">
      <root>
        <mxCell id="WIyWlLk6GJQsqaUBKTNV-0" />
        <mxCell id="WIyWlLk6GJQsqaUBKTNV-1" parent="WIyWlLk6GJQsqaUBKTNV-0" />
        <mxCell id="kL6z5g55hT3dl8oGcxsY-4" value="" style="edgeStyle=orthogonalEdgeStyle;rounded=0;orthogonalLoop=1;jettySize=auto;html=1;" edge="1" parent="WIyWlLk6GJQsqaUBKTNV-1" source="WIyWlLk6GJQsqaUBKTNV-3" target="kL6z5g55hT3dl8oGcxsY-3">
          <mxGeometry relative="1" as="geometry" />
        </mxCell>
        <mxCell id="WIyWlLk6GJQsqaUBKTNV-3" value="数据源A&lt;br&gt;连接配置" style="rounded=1;whiteSpace=wrap;html=1;fontSize=12;glass=0;strokeWidth=1;shadow=0;" parent="WIyWlLk6GJQsqaUBKTNV-1" vertex="1">
          <mxGeometry x="160" y="80" width="120" height="40" as="geometry" />
        </mxCell>
        <mxCell id="kL6z5g55hT3dl8oGcxsY-2" value="" style="edgeStyle=orthogonalEdgeStyle;rounded=0;orthogonalLoop=1;jettySize=auto;html=1;" edge="1" parent="WIyWlLk6GJQsqaUBKTNV-1" source="kL6z5g55hT3dl8oGcxsY-0" target="kL6z5g55hT3dl8oGcxsY-1">
          <mxGeometry relative="1" as="geometry" />
        </mxCell>
        <mxCell id="kL6z5g55hT3dl8oGcxsY-0" value="数据源B&lt;br&gt;连接配置" style="rounded=1;whiteSpace=wrap;html=1;fontSize=12;glass=0;strokeWidth=1;shadow=0;" vertex="1" parent="WIyWlLk6GJQsqaUBKTNV-1">
          <mxGeometry x="320" y="80" width="120" height="40" as="geometry" />
        </mxCell>
        <mxCell id="kL6z5g55hT3dl8oGcxsY-8" value="" style="edgeStyle=orthogonalEdgeStyle;rounded=0;orthogonalLoop=1;jettySize=auto;html=1;" edge="1" parent="WIyWlLk6GJQsqaUBKTNV-1" source="kL6z5g55hT3dl8oGcxsY-1" target="kL6z5g55hT3dl8oGcxsY-7">
          <mxGeometry relative="1" as="geometry" />
        </mxCell>
        <mxCell id="kL6z5g55hT3dl8oGcxsY-1" value="&lt;span&gt;XA数据源(B)&lt;/span&gt;" style="whiteSpace=wrap;html=1;rounded=1;glass=0;strokeWidth=1;shadow=0;" vertex="1" parent="WIyWlLk6GJQsqaUBKTNV-1">
          <mxGeometry x="320" y="160" width="120" height="40" as="geometry" />
        </mxCell>
        <mxCell id="kL6z5g55hT3dl8oGcxsY-6" value="" style="edgeStyle=orthogonalEdgeStyle;rounded=0;orthogonalLoop=1;jettySize=auto;html=1;" edge="1" parent="WIyWlLk6GJQsqaUBKTNV-1" source="kL6z5g55hT3dl8oGcxsY-3" target="kL6z5g55hT3dl8oGcxsY-5">
          <mxGeometry relative="1" as="geometry" />
        </mxCell>
        <mxCell id="kL6z5g55hT3dl8oGcxsY-3" value="XA数据源(A)" style="whiteSpace=wrap;html=1;rounded=1;glass=0;strokeWidth=1;shadow=0;" vertex="1" parent="WIyWlLk6GJQsqaUBKTNV-1">
          <mxGeometry x="160" y="160" width="120" height="40" as="geometry" />
        </mxCell>
        <mxCell id="kL6z5g55hT3dl8oGcxsY-30" style="edgeStyle=orthogonalEdgeStyle;rounded=0;orthogonalLoop=1;jettySize=auto;html=1;exitX=0.5;exitY=1;exitDx=0;exitDy=0;entryX=0.5;entryY=0;entryDx=0;entryDy=0;fontSize=18;" edge="1" parent="WIyWlLk6GJQsqaUBKTNV-1" source="kL6z5g55hT3dl8oGcxsY-5" target="kL6z5g55hT3dl8oGcxsY-26">
          <mxGeometry relative="1" as="geometry" />
        </mxCell>
        <mxCell id="kL6z5g55hT3dl8oGcxsY-5" value="Atomikos数据源(A)" style="whiteSpace=wrap;html=1;rounded=1;glass=0;strokeWidth=1;shadow=0;" vertex="1" parent="WIyWlLk6GJQsqaUBKTNV-1">
          <mxGeometry x="160" y="230" width="120" height="40" as="geometry" />
        </mxCell>
        <mxCell id="kL6z5g55hT3dl8oGcxsY-21" value="" style="edgeStyle=orthogonalEdgeStyle;rounded=0;orthogonalLoop=1;jettySize=auto;html=1;entryX=0.5;entryY=0;entryDx=0;entryDy=0;" edge="1" parent="WIyWlLk6GJQsqaUBKTNV-1" source="kL6z5g55hT3dl8oGcxsY-7" target="kL6z5g55hT3dl8oGcxsY-36">
          <mxGeometry relative="1" as="geometry">
            <mxPoint x="380.02857142857147" y="300" as="targetPoint" />
          </mxGeometry>
        </mxCell>
        <mxCell id="kL6z5g55hT3dl8oGcxsY-7" value="&lt;span&gt;Atomikos数据源(B)&lt;/span&gt;" style="whiteSpace=wrap;html=1;rounded=1;glass=0;strokeWidth=1;shadow=0;" vertex="1" parent="WIyWlLk6GJQsqaUBKTNV-1">
          <mxGeometry x="320" y="230" width="120" height="40" as="geometry" />
        </mxCell>
        <mxCell id="kL6z5g55hT3dl8oGcxsY-9" value="&lt;h1&gt;配置过程&lt;/h1&gt;" style="text;html=1;strokeColor=none;fillColor=none;spacing=5;spacingTop=-20;whiteSpace=wrap;overflow=hidden;rounded=0;" vertex="1" parent="WIyWlLk6GJQsqaUBKTNV-1">
          <mxGeometry x="430" y="-140" width="110" height="40" as="geometry" />
        </mxCell>
        <mxCell id="kL6z5g55hT3dl8oGcxsY-11" value="" style="edgeStyle=orthogonalEdgeStyle;rounded=0;orthogonalLoop=1;jettySize=auto;html=1;" edge="1" parent="WIyWlLk6GJQsqaUBKTNV-1" source="kL6z5g55hT3dl8oGcxsY-10" target="kL6z5g55hT3dl8oGcxsY-1">
          <mxGeometry relative="1" as="geometry" />
        </mxCell>
        <mxCell id="kL6z5g55hT3dl8oGcxsY-10" value="&amp;nbsp;Druid实现" style="text;html=1;strokeColor=none;fillColor=none;align=center;verticalAlign=middle;whiteSpace=wrap;rounded=0;" vertex="1" parent="WIyWlLk6GJQsqaUBKTNV-1">
          <mxGeometry x="510" y="165" width="60" height="30" as="geometry" />
        </mxCell>
        <mxCell id="kL6z5g55hT3dl8oGcxsY-13" value="" style="edgeStyle=orthogonalEdgeStyle;rounded=0;orthogonalLoop=1;jettySize=auto;html=1;" edge="1" parent="WIyWlLk6GJQsqaUBKTNV-1" source="kL6z5g55hT3dl8oGcxsY-12" target="kL6z5g55hT3dl8oGcxsY-3">
          <mxGeometry relative="1" as="geometry" />
        </mxCell>
        <mxCell id="kL6z5g55hT3dl8oGcxsY-12" value="&amp;nbsp;Druid实现" style="text;html=1;strokeColor=none;fillColor=none;align=center;verticalAlign=middle;whiteSpace=wrap;rounded=0;" vertex="1" parent="WIyWlLk6GJQsqaUBKTNV-1">
          <mxGeometry x="40" y="165" width="60" height="30" as="geometry" />
        </mxCell>
        <mxCell id="kL6z5g55hT3dl8oGcxsY-15" value="" style="edgeStyle=orthogonalEdgeStyle;rounded=0;orthogonalLoop=1;jettySize=auto;html=1;" edge="1" parent="WIyWlLk6GJQsqaUBKTNV-1" source="kL6z5g55hT3dl8oGcxsY-14" target="kL6z5g55hT3dl8oGcxsY-0">
          <mxGeometry relative="1" as="geometry" />
        </mxCell>
        <mxCell id="kL6z5g55hT3dl8oGcxsY-16" style="edgeStyle=orthogonalEdgeStyle;rounded=0;orthogonalLoop=1;jettySize=auto;html=1;entryX=0.5;entryY=0;entryDx=0;entryDy=0;" edge="1" parent="WIyWlLk6GJQsqaUBKTNV-1" source="kL6z5g55hT3dl8oGcxsY-14" target="WIyWlLk6GJQsqaUBKTNV-3">
          <mxGeometry relative="1" as="geometry" />
        </mxCell>
        <mxCell id="kL6z5g55hT3dl8oGcxsY-14" value="配置文件或consul" style="rounded=1;whiteSpace=wrap;html=1;" vertex="1" parent="WIyWlLk6GJQsqaUBKTNV-1">
          <mxGeometry x="235" y="-10" width="125" height="40" as="geometry" />
        </mxCell>
        <mxCell id="kL6z5g55hT3dl8oGcxsY-25" value="&lt;h1&gt;&lt;font style=&quot;font-size: 18px&quot;&gt;数据源和Mybatis&lt;/font&gt;&lt;/h1&gt;" style="text;html=1;strokeColor=none;fillColor=none;spacing=5;spacingTop=-20;whiteSpace=wrap;overflow=hidden;rounded=0;" vertex="1" parent="WIyWlLk6GJQsqaUBKTNV-1">
          <mxGeometry x="223.75" y="-60" width="147.5" height="40" as="geometry" />
        </mxCell>
        <mxCell id="kL6z5g55hT3dl8oGcxsY-31" value="&lt;span style=&quot;font-size: 12px&quot;&gt;SqlSessionFactory(A)&lt;/span&gt;" style="text;html=1;strokeColor=none;fillColor=none;align=center;verticalAlign=middle;whiteSpace=wrap;rounded=0;dashed=1;fontSize=18;" vertex="1" parent="WIyWlLk6GJQsqaUBKTNV-1">
          <mxGeometry x="50" y="330" width="60" height="30" as="geometry" />
        </mxCell>
        <mxCell id="kL6z5g55hT3dl8oGcxsY-32" value="" style="group" vertex="1" connectable="0" parent="WIyWlLk6GJQsqaUBKTNV-1">
          <mxGeometry x="148.75" y="300" width="142.5" height="120" as="geometry" />
        </mxCell>
        <mxCell id="kL6z5g55hT3dl8oGcxsY-26" value="&lt;div&gt;&lt;br&gt;&lt;/div&gt;" style="rounded=0;whiteSpace=wrap;html=1;fontSize=18;dashed=1;align=center;" vertex="1" parent="kL6z5g55hT3dl8oGcxsY-32">
          <mxGeometry width="142.5" height="120" as="geometry" />
        </mxCell>
        <mxCell id="kL6z5g55hT3dl8oGcxsY-18" value="数据源" style="whiteSpace=wrap;html=1;rounded=1;glass=0;strokeWidth=1;shadow=0;" vertex="1" parent="kL6z5g55hT3dl8oGcxsY-32">
          <mxGeometry x="11.25" y="10" width="120" height="40" as="geometry" />
        </mxCell>
        <mxCell id="kL6z5g55hT3dl8oGcxsY-23" value="mapper.xml" style="whiteSpace=wrap;html=1;rounded=1;glass=0;strokeWidth=1;shadow=0;" vertex="1" parent="kL6z5g55hT3dl8oGcxsY-32">
          <mxGeometry x="11.25" y="60" width="120" height="40" as="geometry" />
        </mxCell>
        <mxCell id="kL6z5g55hT3dl8oGcxsY-35" value="" style="group" vertex="1" connectable="0" parent="WIyWlLk6GJQsqaUBKTNV-1">
          <mxGeometry x="308.75" y="300" width="142.5" height="120" as="geometry" />
        </mxCell>
        <mxCell id="kL6z5g55hT3dl8oGcxsY-36" value="&lt;div&gt;&lt;br&gt;&lt;/div&gt;" style="rounded=0;whiteSpace=wrap;html=1;fontSize=18;dashed=1;align=center;" vertex="1" parent="kL6z5g55hT3dl8oGcxsY-35">
          <mxGeometry width="142.5" height="120" as="geometry" />
        </mxCell>
        <mxCell id="kL6z5g55hT3dl8oGcxsY-37" value="数据源" style="whiteSpace=wrap;html=1;rounded=1;glass=0;strokeWidth=1;shadow=0;" vertex="1" parent="kL6z5g55hT3dl8oGcxsY-35">
          <mxGeometry x="11.25" y="10" width="120" height="40" as="geometry" />
        </mxCell>
        <mxCell id="kL6z5g55hT3dl8oGcxsY-38" value="mapper.xml" style="whiteSpace=wrap;html=1;rounded=1;glass=0;strokeWidth=1;shadow=0;" vertex="1" parent="kL6z5g55hT3dl8oGcxsY-35">
          <mxGeometry x="11.25" y="60" width="120" height="40" as="geometry" />
        </mxCell>
        <mxCell id="kL6z5g55hT3dl8oGcxsY-39" value="&lt;span style=&quot;font-size: 12px&quot;&gt;SqlSessionFactory(B)&lt;/span&gt;" style="text;html=1;strokeColor=none;fillColor=none;align=center;verticalAlign=middle;whiteSpace=wrap;rounded=0;dashed=1;fontSize=18;" vertex="1" parent="WIyWlLk6GJQsqaUBKTNV-1">
          <mxGeometry x="500" y="330" width="60" height="30" as="geometry" />
        </mxCell>
      </root>
    </mxGraphModel>
  </diagram>
</mxfile>
